<svg width="139" height="25" viewBox="0 0 139 25" fill="none" xmlns="http://www.w3.org/2000/svg">
<path fill-rule="evenodd" clip-rule="evenodd" d="M0 24.9997L16.778 7.87976C22.854 1.67924 26.141 0.509857 37.582 0.509857H78.679L70.3385 8.85782H39.3715C30.9345 8.85782 28.7615 9.54302 24.6075 13.7497L13.518 24.9997H0Z" fill="#333333"/>
<path fill-rule="evenodd" clip-rule="evenodd" d="M40.2026 11.1733C31.7656 11.1733 30.1356 11.5647 26.3331 15.4453L17.0331 24.9999H29.5606L32.5326 21.9019C34.2901 20.0432 35.0256 19.5866 39.2121 19.5866H59.6961L68.0371 11.1733H40.2026Z" fill="#333333"/>
<path fill-rule="evenodd" clip-rule="evenodd" d="M81.6191 0.509857L57.6191 24.9997H71.8401L95.9361 0.509857H81.6191Z" fill="#333333"/>
<path fill-rule="evenodd" clip-rule="evenodd" d="M80.7613 20.9171H84.0003V21.5334H82.7278V24.9987H82.0278V21.5334H80.7613V20.9171Z" fill="#333333"/>
<path fill-rule="evenodd" clip-rule="evenodd" d="M84.6484 20.9171H85.6349L86.7379 24.1125H86.7489L87.8254 20.9171H88.7999V24.9987H88.1329V21.8477H88.1214L87.0129 24.9987H86.4354L85.3259 21.8477H85.3149V24.9987H84.6484V20.9171Z" fill="#333333"/>
<path fill-rule="evenodd" clip-rule="evenodd" d="M128.885 10.575C130.09 11.7897 130.09 13.7586 128.885 14.9734C127.68 16.1882 125.727 16.1882 124.522 14.9734C124.098 14.5459 123.827 14.0244 123.701 13.476L120.813 16.3872C121.09 16.8397 121.421 17.2678 121.81 17.6607C124.499 20.3719 128.86 20.3719 131.55 17.6607C134.239 14.9484 134.239 10.552 131.55 7.84026C128.86 5.12852 124.499 5.12852 121.81 7.84026C121.779 7.87138 121.751 7.90505 121.721 7.93618V7.93567L104.822 24.9744L110.246 24.9719L120.157 14.979V14.9795L124.493 10.6076C124.503 10.5969 124.511 10.5857 124.522 10.575C125.727 9.36016 127.68 9.36016 128.885 10.575Z" fill="#333333"/>
<path fill-rule="evenodd" clip-rule="evenodd" d="M135.237 4.09674C130.581 -0.59765 123.087 -0.680302 118.327 3.84266L97.3499 24.9712L102.774 24.9687C102.774 24.9687 120.647 6.92888 120.759 6.81613C124.012 3.53551 129.287 3.53551 132.54 6.81613C135.793 10.0962 135.793 15.4146 132.54 18.6942C129.287 21.9743 124.012 21.9743 120.759 18.6942C120.377 18.309 120.041 17.8957 119.748 17.461L117.019 20.2136C117.336 20.6299 117.683 21.0314 118.062 21.4136C122.805 26.1952 130.494 26.1952 135.237 21.4136C139.979 16.6314 139.979 8.87837 135.237 4.09674Z" fill="#333333"/>
<path fill-rule="evenodd" clip-rule="evenodd" d="M117.333 2.77986C118.301 1.85996 119.384 1.09976 120.546 0.509964H100.003V4.36354H115.761L117.333 2.77986Z" fill="#333333"/>
<path fill-rule="evenodd" clip-rule="evenodd" d="M114.308 5.82715H100.002V9.68174H110.481L114.308 5.82715Z" fill="#333333"/>
</svg>
